<?xml version="1.0" encoding="utf-8"?>
<!-- Generator: Adobe Illustrator 13.0.1, SVG Export Plug-In  -->
<!DOCTYPE svg PUBLIC "-//W3C//DTD SVG 1.1//EN" "http://www.w3.org/Graphics/SVG/1.1/DTD/svg11.dtd" [
	<!ENTITY ns_flows "http://ns.adobe.com/Flows/1.0/">
]>
<svg version="1.1"
	 xmlns="http://www.w3.org/2000/svg" xmlns:xlink="http://www.w3.org/1999/xlink" xmlns:a="http://ns.adobe.com/AdobeSVGViewerExtensions/3.0/"
	 x="0px" y="0px" width="157px" height="34px" viewBox="-0.117 -0.314 157 34" enable-background="new -0.117 -0.314 157 34"
	 xml:space="preserve">
<defs>
</defs>
<path fill="#C80651" d="M48.441,20.699c0.101-0.201,0.268-0.535,0.334-0.701l4.073-9.883l4.006,9.982
	c0.067,0.167,0.2,0.434,0.301,0.667l-0.5,0.101c-1.136,0.301-2.404,0.5-3.706,0.5c-1.303,0-2.504-0.166-3.773-0.5
	C48.942,20.799,48.608,20.699,48.441,20.699 M7.011,5.642c4.54,0,7.745,0.935,9.748,2.704c2.404,2.104,3.606,4.874,3.606,8.346
	c0,3.307-1.168,6.043-3.473,8.18c-2.003,1.903-5.274,2.904-9.882,2.904H5.542V5.642H7.011z M147.229,8.479
	c2.271,2.203,3.372,4.974,3.372,8.212c0,3.205-1.135,5.943-3.372,8.213c-2.236,2.237-4.94,3.372-8.112,3.372
	c-6.376,0-11.451-5.241-11.451-11.585c0-3.204,1.136-5.975,3.373-8.246c2.203-2.236,4.939-3.338,8.078-3.338
	S144.959,6.242,147.229,8.479z M93.445,10.416l4.039-3.473C94.013,2.303,89.372,0,83.897,0C74.583,0,67.07,7.444,67.07,16.759
	c0,9.114,7.479,16.626,16.594,16.626c2.303,0,4.507-0.501,6.643-1.469c2.07-0.936,3.873-2.237,5.342-3.939
	c1.402-1.568,2.304-3.372,2.838-5.342c0.435-1.637,0.701-3.639,0.568-6.043l-0.068-0.969H84.432v5.108h8.946
	c-0.233,2.003-1.269,3.739-3.071,5.175c-1.969,1.603-4.206,2.37-6.71,2.37c-2.905,0-5.509-1.202-7.913-3.571
	c-2.169-2.203-3.271-4.842-3.271-7.912c0-3.239,1.135-6.043,3.472-8.381c2.203-2.236,4.874-3.305,7.946-3.305
	C87.77,5.107,90.875,6.91,93.445,10.416z M59.226,25.807l2.972,7.077h5.876L54.284,0.434h-2.67l-14.156,32.45h5.843l3.105-7.212
	c0.065-0.199,0.1-0.334,0.133-0.467c0.133,0.066,0.334,0.133,0.566,0.233c1.737,0.668,3.807,1.035,5.844,1.035
	c2.003,0,3.973-0.399,5.141-0.802c0.602-0.199,0.802-0.299,0.968-0.4C59.092,25.405,59.191,25.707,59.226,25.807z M6.844,32.884
	c5.942,0,10.516-1.335,13.588-4.106c3.505-3.138,5.275-7.144,5.275-12.052c0-5.108-1.803-9.214-5.409-12.286
	C17.26,1.836,12.753,0.533,6.911,0.533H0v32.351H6.844z M35.354,0.533h-5.308v32.351h5.308V0.533z M107.835,17.793h11.316V12.72
	h-11.316V5.642h12.319V0.533h-17.629v32.351h17.661v-5.108h-12.352V17.793z M127.264,4.906c-3.304,3.239-4.939,7.213-4.939,11.819
	c0,9.313,7.511,16.659,16.792,16.659c9.314,0,16.793-7.311,16.793-16.659c0-4.574-1.669-8.479-4.908-11.785
	C147.729,1.636,143.757,0,139.116,0C134.51,0,130.537,1.636,127.264,4.906z"/>
</svg>
