<?xml version="1.0" encoding="UTF-8" standalone="no"?>
<!-- Created with Inkscape (http://www.inkscape.org/) -->

<svg
   xmlns:dc="http://purl.org/dc/elements/1.1/"
   xmlns:cc="http://creativecommons.org/ns#"
   xmlns:rdf="http://www.w3.org/1999/02/22-rdf-syntax-ns#"
   xmlns:svg="http://www.w3.org/2000/svg"
   xmlns="http://www.w3.org/2000/svg"
   xmlns:sodipodi="http://sodipodi.sourceforge.net/DTD/sodipodi-0.dtd"
   xmlns:inkscape="http://www.inkscape.org/namespaces/inkscape"
   width="470"
   height="40"
   id="svg3333"
   version="1.1"
   inkscape:version="0.91 r13725"
   sodipodi:docname="HarveyNichols_logo.svg">
  <defs
     id="defs3335" />
  <sodipodi:namedview
     id="base"
     pagecolor="#ffffff"
     bordercolor="#666666"
     borderopacity="1.0"
     inkscape:pageopacity="0.0"
     inkscape:pageshadow="2"
     inkscape:zoom="0.9899495"
     inkscape:cx="233.77901"
     inkscape:cy="89.532333"
     inkscape:document-units="px"
     inkscape:current-layer="layer1"
     showgrid="false"
     fit-margin-top="0"
     fit-margin-left="0"
     fit-margin-right="0"
     fit-margin-bottom="0"
     inkscape:window-width="1440"
     inkscape:window-height="844"
     inkscape:window-x="-4"
     inkscape:window-y="-4"
     inkscape:window-maximized="1" />
  <metadata
     id="metadata3338">
    <rdf:RDF>
      <cc:Work
         rdf:about="">
        <dc:format>image/svg+xml</dc:format>
        <dc:type
           rdf:resource="http://purl.org/dc/dcmitype/StillImage" />
        <dc:title></dc:title>
      </cc:Work>
    </rdf:RDF>
  </metadata>
  <g
     inkscape:label="Layer 1"
     inkscape:groupmode="layer"
     id="layer1"
     transform="translate(-192.2114,-388.41138)">
    <rect
       style="opacity:1"
       id="rect3358"
       width="470"
       height="40"
       x="192.2114"
       y="388.41138" />
    <g
       transform="matrix(1.6777921,0,0,-1.6777921,-91.484212,1700.7672)"
       id="g3294"
       style="fill:#ffffff;fill-opacity:1">
      <path
         d="m 184.1322,772.1895 0,7.77 2.133,0 0,-19.146 -2.133,0 0,9.395 -9.802,0 0,-9.395 -2.133,0 0,19.146 2.133,0 0,-7.77 9.802,0 z"
         style="fill:#ffffff;fill-opacity:1;fill-rule:nonzero;stroke:none"
         id="path208"
         inkscape:connector-curvature="0" />
      <path
         d="m 202.3131,775.8969 -3.276,-7.669 6.476,0 -3.2,7.669 z m -4.139,-9.65 -2.311,-5.434 -2.336,0 8.837,20.06 8.608,-20.06 -2.362,0 -2.259,5.434 -8.177,0 z"
         style="fill:#ffffff;fill-opacity:1;fill-rule:nonzero;stroke:none"
         id="path212"
         inkscape:connector-curvature="0" />
      <path
         d="m 220.266,771.0972 0.66,0 c 2.413,0 4.85,0.457 4.85,3.428 0,3.149 -2.31,3.453 -4.875,3.453 l -0.635,0 0,-6.881 z m 0,-10.284 -2.133,0 0,19.146 2.768,0 c 3.631,0 7.008,-0.965 7.008,-5.282 0,-2.945 -1.853,-5.027 -4.799,-5.281 l 6.094,-8.583 -2.615,0 -5.79,8.405 -0.533,0 0,-8.405"
         style="fill:#ffffff;fill-opacity:1;fill-rule:nonzero;stroke:none"
         id="path224"
         inkscape:connector-curvature="0" />
      <path
         d="m 242.9671,765.3586 5.459,14.601 2.311,0 -7.77,-20.289 -7.77,20.289 2.31,0 5.46,-14.601 z"
         style="fill:#ffffff;fill-opacity:1;fill-rule:nonzero;stroke:none"
         id="path228"
         inkscape:connector-curvature="0" />
      <path
         d="m 257.8986,779.9595 9.928,0 0,-1.981 -7.795,0 0,-5.688 7.567,0 0,-1.981 -7.567,0 0,-7.516 7.795,0 0,-1.98 -9.928,0 0,19.146 z"
         style="fill:#ffffff;fill-opacity:1;fill-rule:nonzero;stroke:none"
         id="path232"
         inkscape:connector-curvature="0" />
      <path
         d="m 274.81,779.9595 2.462,0 4.877,-8.532 4.875,8.532 2.463,0 -6.272,-10.919 0,-8.227 -2.133,0 0,8.227 -6.272,10.919 z"
         style="fill:#ffffff;fill-opacity:1;fill-rule:nonzero;stroke:none"
         id="path236"
         inkscape:connector-curvature="0" />
      <path
         d="m 309.6988,780.7723 14.932,-15.643 0,14.83 2.133,0 0,-20.01 -14.931,15.617 0,-14.753 -2.134,0 0,19.959 z"
         style="fill:#ffffff;fill-opacity:1;fill-rule:nonzero;stroke:none"
         id="path240"
         inkscape:connector-curvature="0" />
      <path
         inkscape:connector-curvature="0"
         id="path242"
         style="fill:#ffffff;fill-opacity:1;fill-rule:nonzero;stroke:none"
         d="m 338.013,760.813 -2.133,0 0,19.146 2.133,0 0,-19.146 z" />
      <path
         d="m 361.5774,775.7698 c -1.524,1.574 -3.631,2.539 -5.84,2.539 -4.266,0 -7.719,-3.707 -7.719,-7.923 0,-4.214 3.477,-7.922 7.77,-7.922 2.158,0 4.265,1.016 5.789,2.539 l 0,-2.641 c -1.651,-1.194 -3.682,-1.879 -5.713,-1.879 -5.41,0 -9.981,4.393 -9.981,9.827 0,5.485 4.496,9.98 9.981,9.98 2.132,0 4.012,-0.61 5.713,-1.879 l 0,-2.641"
         style="fill:#ffffff;fill-opacity:1;fill-rule:nonzero;stroke:none"
         id="path246"
         inkscape:connector-curvature="0" />
      <path
         d="m 382.2986,772.1895 0,7.77 2.133,0 0,-19.146 -2.133,0 0,9.395 -9.803,0 0,-9.395 -2.132,0 0,19.146 2.132,0 0,-7.77 9.803,0 z"
         style="fill:#ffffff;fill-opacity:1;fill-rule:nonzero;stroke:none"
         id="path250"
         inkscape:connector-curvature="0" />
      <path
         d="m 394.6385,770.3862 c 0,-4.317 3.505,-7.922 7.847,-7.922 4.342,0 7.847,3.605 7.847,7.922 0,4.342 -3.454,7.922 -7.847,7.922 -4.392,0 -7.847,-3.58 -7.847,-7.922 m 17.826,-0.025 c 0,-5.511 -4.52,-9.878 -9.979,-9.878 -5.46,0 -9.98,4.367 -9.98,9.878 0,5.484 4.52,9.928 9.98,9.928 5.459,0 9.979,-4.444 9.979,-9.928"
         style="fill:#ffffff;fill-opacity:1;fill-rule:nonzero;stroke:none"
         id="path254"
         inkscape:connector-curvature="0" />
      <path
         d="m 422.5709,762.7938 5.282,0 0,-1.981 -7.415,0 0,19.147 2.133,0 0,-17.166 z"
         style="fill:#ffffff;fill-opacity:1;fill-rule:nonzero;stroke:none"
         id="path258"
         inkscape:connector-curvature="0" />
      <path
         d="m 443.7239,776.2268 c -0.762,1.32 -1.676,2.082 -3.302,2.082 -1.701,0 -3.174,-1.219 -3.174,-2.971 0,-1.65 1.701,-2.412 2.997,-2.996 l 1.269,-0.559 c 2.489,-1.092 4.596,-2.336 4.596,-5.383 0,-3.352 -2.69,-5.917 -6.019,-5.917 -3.072,0 -5.357,1.981 -5.966,4.951 l 2.081,0.584 c 0.281,-1.954 1.779,-3.554 3.835,-3.554 2.058,0 3.937,1.574 3.937,3.733 0,2.234 -1.752,2.996 -3.53,3.808 l -1.169,0.508 c -2.233,1.016 -4.164,2.159 -4.164,4.901 0,2.971 2.514,4.876 5.358,4.876 2.133,0 3.937,-1.092 4.952,-2.971 l -1.701,-1.092"
         style="fill:#ffffff;fill-opacity:1;fill-rule:nonzero;stroke:none"
         id="path262"
         inkscape:connector-curvature="0" />
    </g>
  </g>
</svg>
