<?xml version="1.0" encoding="UTF-8" standalone="no"?>
<!-- Created with Inkscape (http://www.inkscape.org/) -->
<svg
   xmlns:dc="http://purl.org/dc/elements/1.1/"
   xmlns:cc="http://creativecommons.org/ns#"
   xmlns:rdf="http://www.w3.org/1999/02/22-rdf-syntax-ns#"
   xmlns:svg="http://www.w3.org/2000/svg"
   xmlns="http://www.w3.org/2000/svg"
   xmlns:sodipodi="http://sodipodi.sourceforge.net/DTD/sodipodi-0.dtd"
   xmlns:inkscape="http://www.inkscape.org/namespaces/inkscape"
   width="200"
   height="65"
   id="svg3448"
   sodipodi:version="0.32"
   inkscape:version="0.46"
   version="1.0"
   sodipodi:docname="Maplin Electronics logo.svg"
   inkscape:output_extension="org.inkscape.output.svg.inkscape">
  <defs
     id="defs3450">
    <clipPath
       id="clipPath2470"
       clipPathUnits="userSpaceOnUse">
      <path
         id="path2472"
         d="M 0.029999,666.15 L 912.81,666.15 L 912.81,0.03 L 0.029999,0.03 L 0.029999,666.15 z" />
    </clipPath>
    <clipPath
       id="clipPath2464"
       clipPathUnits="userSpaceOnUse">
      <path
         id="path2466"
         d="M 20.882,644.811 L 891.118,644.811 L 891.118,21.189 L 20.882,21.189 L 20.882,644.811 z" />
    </clipPath>
    <clipPath
       id="clipPath2458"
       clipPathUnits="userSpaceOnUse">
      <path
         id="path2460"
         clip-rule="evenodd"
         d="M 329.213,135.992 L 441.17,135.992 L 441.17,92.022 L 329.213,92.022 L 329.213,135.992 z" />
    </clipPath>
    <clipPath
       id="clipPath2452"
       clipPathUnits="userSpaceOnUse">
      <path
         id="path2454"
         d="M 439.852,261.832 L 331.166,261.832 L 331.166,50.821 L 439.852,50.821 L 439.852,261.832 z" />
    </clipPath>
    <inkscape:perspective
       sodipodi:type="inkscape:persp3d"
       inkscape:vp_x="0 : 526.18109 : 1"
       inkscape:vp_y="0 : 1000 : 0"
       inkscape:vp_z="744.09448 : 526.18109 : 1"
       inkscape:persp3d-origin="372.04724 : 350.78739 : 1"
       id="perspective3456" />
  </defs>
  <sodipodi:namedview
     id="base"
     pagecolor="#ffffff"
     bordercolor="#666666"
     borderopacity="1.0"
     gridtolerance="10000"
     guidetolerance="10"
     objecttolerance="10"
     inkscape:pageopacity="0.0"
     inkscape:pageshadow="2"
     inkscape:zoom="1.979899"
     inkscape:cx="201.29814"
     inkscape:cy="39.770002"
     inkscape:document-units="px"
     inkscape:current-layer="layer1"
     showgrid="false"
     inkscape:window-width="1264"
     inkscape:window-height="838"
     inkscape:window-x="-8"
     inkscape:window-y="-8" />
  <metadata
     id="metadata3453">
    <rdf:RDF>
      <cc:Work
         rdf:about="">
        <dc:format>image/svg+xml</dc:format>
        <dc:type
           rdf:resource="http://purl.org/dc/dcmitype/StillImage" />
      </cc:Work>
    </rdf:RDF>
  </metadata>
  <g
     inkscape:label="Layer 1"
     inkscape:groupmode="layer"
     id="layer1"
     transform="translate(-234.9284,-224.95227)">
    <g
       id="g2448"
       transform="matrix(1.795477,0,0,-1.795477,-357.24414,461.45706)">
      <g
         id="g2450"
         clip-path="url(#clipPath2452)">
        <g
           id="g2456"
           clip-path="url(#clipPath2458)">
          <g
             id="g2462"
             clip-path="url(#clipPath2464)">
            <g
               id="g2468"
               clip-path="url(#clipPath2470)">
              <path
                 d="M 337.004,123.459 L 337.004,120.66 C 337.284,121.22 337.644,121.98 338.604,122.7 C 339.644,123.5 341.163,123.939 342.643,123.939 C 343.403,123.939 344.162,123.819 344.922,123.58 C 347.282,122.78 347.961,121.1 348.242,120.381 C 350.081,123.459 353.001,123.9 354.56,123.9 C 356.48,123.9 358.159,123.26 359.279,122.26 C 361.278,120.5 361.359,118.58 361.359,113.781 L 361.359,102.744 L 355.48,102.744 L 355.48,112.542 C 355.48,115.861 355.4,116.541 354.8,117.421 C 354.161,118.381 353.241,118.58 352.361,118.58 C 350.761,118.58 349.961,117.541 349.841,117.381 C 349.201,116.382 349.201,114.662 349.201,112.981 L 349.201,102.744 L 343.322,102.744 L 343.322,113.182 C 343.322,115.421 343.322,116.422 342.723,117.341 C 342.283,118.02 341.403,118.58 340.323,118.58 C 339.803,118.58 339.284,118.461 338.804,118.221 C 337.085,117.341 337.044,115.821 337.044,111.902 L 337.044,102.744 L 331.166,102.744 L 331.166,123.459 L 337.004,123.459"
                 style="fill:#40c1e7;fill-opacity:1;fill-rule:nonzero;stroke:none"
                 id="path2474" />
              <path
                 d="M 374.895,118.181 C 374.296,118.82 373.415,119.22 372.536,119.22 C 371.456,119.22 370.337,118.621 369.617,117.701 C 368.617,116.382 368.377,114.742 368.377,113.142 C 368.377,111.862 368.537,110.622 369.017,109.582 C 369.817,107.783 371.136,107.143 372.296,107.143 C 372.656,107.143 373.816,107.223 374.855,108.303 C 376.095,109.662 376.375,111.462 376.375,113.342 C 376.375,116.021 375.655,117.421 374.895,118.181 z M 376.415,105.024 C 375.695,104.064 374.335,102.304 370.976,102.304 C 366.057,102.304 362.378,106.303 362.378,112.781 C 362.378,120.94 367.497,123.98 371.417,123.98 C 373.695,123.98 375.495,122.82 376.535,120.82 L 376.535,123.5 L 382.174,123.5 L 382.174,102.744 L 376.415,102.744 L 376.415,105.024"
                 style="fill:#40c1e7;fill-opacity:1;fill-rule:nonzero;stroke:none"
                 id="path2476" />
              <path
                 d="M 391.696,118.781 C 389.416,117.621 389.257,114.742 389.257,112.942 C 389.257,111.583 389.416,110.222 390.015,109.183 C 390.816,107.623 392.175,107.143 393.455,107.143 C 396.454,107.143 397.654,110.142 397.654,113.501 C 397.654,115.821 396.893,119.181 393.575,119.181 C 392.894,119.181 392.256,119.06 391.696,118.781 z M 389.177,123.5 L 389.177,121.019 C 390.616,123.06 392.495,124.019 395.054,124.019 C 400.174,124.019 403.612,119.78 403.612,113.142 C 403.612,106.823 400.094,102.225 394.775,102.225 C 391.575,102.225 390.255,103.584 389.336,104.544 L 389.336,96.265 L 383.457,96.265 L 383.457,123.5 L 389.177,123.5"
                 style="fill:#40c1e7;fill-opacity:1;fill-rule:nonzero;stroke:none"
                 id="path2478" />
              <path
                 d="M 414.125,102.744 L 419.9637,102.744 L 419.9637,123.459 L 414.125,123.459 L 414.125,102.744 z"
                 style="fill:#40c1e7;fill-opacity:1;fill-rule:nonzero;stroke:none"
                 id="path2480" />
              <path
                 d="M 421.296,123.459 L 427.055,123.459 L 427.055,121.1 C 427.574,121.819 429.374,123.939 432.734,123.939 C 436.212,123.939 439.332,121.9 439.772,117.5 C 439.852,116.86 439.852,116.701 439.852,113.982 L 439.852,102.744 L 433.853,102.744 L 433.853,113.581 C 433.853,115.182 433.853,115.701 433.773,116.222 C 433.333,118.861 431.054,118.901 430.734,118.901 C 429.054,118.901 427.934,117.74 427.535,116.581 C 427.214,115.742 427.214,114.742 427.214,112.781 L 427.214,102.744 L 421.296,102.744 L 421.296,123.459"
                 style="fill:#40c1e7;fill-opacity:1;fill-rule:nonzero;stroke:none"
                 id="path2482" />
              <path
                 d="M 333.552,129.909 L 333.552,126.298 L 332.56,126.298 L 332.56,129.909 L 331.235,129.909 L 331.235,130.732 L 334.877,130.732 L 334.877,129.909 L 333.552,129.909"
                 style="fill:#444041;fill-opacity:1;fill-rule:nonzero;stroke:none"
                 id="path2484" />
              <path
                 d="M 336.017,130.738 L 336.017,129.219 C 336.143,129.413 336.482,129.633 336.915,129.633 C 337.311,129.633 337.581,129.463 337.732,129.281 C 337.989,128.98 337.989,128.621 337.989,128.138 L 337.989,126.298 L 337.066,126.298 L 337.066,127.906 C 337.066,128.333 337.066,128.433 337.028,128.546 C 336.972,128.716 336.828,128.841 336.582,128.841 C 336.413,128.841 336.3,128.785 336.212,128.703 C 336.017,128.533 336.017,128.333 336.017,127.924 L 336.017,126.298 L 335.1,126.298 L 335.1,130.738 L 336.017,130.738"
                 style="fill:#444041;fill-opacity:1;fill-rule:nonzero;stroke:none"
                 id="path2486" />
              <path
                 d="M 340.594,128.358 C 340.581,128.452 340.563,128.558 340.475,128.684 C 340.299,128.923 340.041,128.923 339.966,128.923 C 339.445,128.923 339.338,128.521 339.294,128.358 L 340.594,128.358 z M 339.288,127.66 C 339.306,127.535 339.326,127.39 339.438,127.234 C 339.595,127.008 339.796,126.957 339.991,126.957 C 340.406,126.957 340.537,127.202 340.594,127.309 L 341.53,127.24 C 341.486,127.113 341.442,126.963 341.247,126.737 C 341.134,126.611 340.77,126.21 339.966,126.21 C 338.823,126.21 338.314,127.051 338.314,127.924 C 338.314,128.878 338.93,129.645 339.978,129.645 C 340.877,129.645 341.316,129.068 341.48,128.471 C 341.568,128.157 341.568,127.861 341.568,127.66 L 339.288,127.66"
                 style="fill:#444041;fill-opacity:1;fill-rule:nonzero;stroke:none"
                 id="path2488" />
              <path
                 d="M 345.706,128.358 C 345.694,128.452 345.675,128.558 345.587,128.684 C 345.411,128.923 345.154,128.923 345.078,128.923 C 344.557,128.923 344.45,128.521 344.406,128.358 L 345.706,128.358 z M 344.4,127.66 C 344.419,127.535 344.437,127.39 344.55,127.234 C 344.707,127.008 344.909,126.957 345.103,126.957 C 345.518,126.957 345.65,127.202 345.706,127.309 L 346.641,127.24 C 346.598,127.113 346.554,126.963 346.359,126.737 C 346.246,126.611 345.882,126.21 345.078,126.21 C 343.935,126.21 343.426,127.051 343.426,127.924 C 343.426,128.878 344.042,129.645 345.09,129.645 C 345.988,129.645 346.428,129.068 346.592,128.471 C 346.68,128.157 346.68,127.861 346.68,127.66 L 344.4,127.66"
                 style="fill:#444041;fill-opacity:1;fill-rule:nonzero;stroke:none"
                 id="path2490" />
              <path
                 d="M 347.024,130.738 L 347.96,130.738 L 347.922,127.309 C 347.922,127.026 348.011,127.001 348.337,127.001 L 348.337,126.272 C 348.186,126.26 348.048,126.254 347.898,126.254 C 347.735,126.254 347.42,126.26 347.213,126.448 C 347.012,126.63 346.993,126.875 346.993,127.113 L 347.024,130.738"
                 style="fill:#444041;fill-opacity:1;fill-rule:nonzero;stroke:none"
                 id="path2492" />
              <path
                 d="M 350.612,128.358 C 350.598,128.452 350.58,128.558 350.492,128.684 C 350.316,128.923 350.059,128.923 349.983,128.923 C 349.462,128.923 349.355,128.521 349.311,128.358 L 350.612,128.358 z M 349.305,127.66 C 349.324,127.535 349.343,127.39 349.456,127.234 C 349.612,127.008 349.814,126.957 350.008,126.957 C 350.423,126.957 350.555,127.202 350.612,127.309 L 351.548,127.24 C 351.503,127.113 351.459,126.963 351.265,126.737 C 351.151,126.611 350.788,126.21 349.983,126.21 C 348.84,126.21 348.332,127.051 348.332,127.924 C 348.332,128.878 348.947,129.645 349.996,129.645 C 350.894,129.645 351.334,129.068 351.497,128.471 C 351.585,128.157 351.585,127.861 351.585,127.66 L 349.305,127.66"
                 style="fill:#444041;fill-opacity:1;fill-rule:nonzero;stroke:none"
                 id="path2494" />
              <path
                 d="M 354.9,127.503 C 354.856,127.202 354.763,126.963 354.573,126.731 C 354.172,126.235 353.638,126.203 353.362,126.203 C 352.156,126.203 351.754,127.108 351.754,127.912 C 351.754,128.942 352.375,129.645 353.418,129.645 C 353.707,129.645 354.184,129.595 354.555,129.161 C 354.825,128.848 354.856,128.546 354.869,128.42 L 353.977,128.383 C 353.946,128.514 353.858,128.885 353.399,128.885 C 352.715,128.885 352.715,128.094 352.715,127.938 C 352.715,127.724 352.734,127.503 352.834,127.321 C 352.966,127.077 353.186,126.988 353.394,126.988 C 353.594,126.988 353.933,127.089 353.996,127.541 L 354.9,127.503"
                 style="fill:#444041;fill-opacity:1;fill-rule:nonzero;stroke:none"
                 id="path2496" />
              <path
                 d="M 356.917,128.848 L 356.345,128.848 L 356.345,127.654 C 356.345,127.327 356.345,127.29 356.351,127.234 C 356.382,127.07 356.458,127.008 356.697,127.008 C 356.734,127.008 356.91,127.014 356.947,127.014 L 356.947,126.304 C 356.734,126.279 356.584,126.26 356.313,126.26 C 355.409,126.26 355.422,126.806 355.422,127.441 L 355.422,128.848 L 354.957,128.848 L 354.957,129.551 L 355.422,129.551 L 355.422,130.512 L 356.345,130.512 L 356.345,129.551 L 356.917,129.551 L 356.917,128.848"
                 style="fill:#444041;fill-opacity:1;fill-rule:nonzero;stroke:none"
                 id="path2498" />
              <path
                 d="M 358.205,129.551 L 358.205,129.017 C 358.337,129.338 358.531,129.614 359.046,129.614 C 359.078,129.614 359.14,129.607 359.203,129.601 L 359.203,128.759 C 359.14,128.771 359.078,128.778 358.983,128.778 C 358.707,128.778 358.518,128.697 358.399,128.54 C 358.261,128.358 358.249,128.194 358.249,127.359 L 358.249,126.298 L 357.3,126.298 L 357.3,129.551 L 358.205,129.551"
                 style="fill:#444041;fill-opacity:1;fill-rule:nonzero;stroke:none"
                 id="path2500" />
              <path
                 d="M 361.477,128.615 C 361.307,128.867 361.081,128.904 360.924,128.904 C 360.817,128.904 360.685,128.885 360.566,128.823 C 360.202,128.621 360.171,128.157 360.171,127.931 C 360.171,127.812 360.183,127.685 360.208,127.567 C 360.321,127.045 360.692,126.957 360.905,126.957 C 361.137,126.957 361.338,127.064 361.47,127.259 C 361.628,127.491 361.639,127.786 361.639,127.962 C 361.639,128.151 361.628,128.396 361.477,128.615 z M 362.588,127.938 C 362.588,126.857 361.815,126.203 360.849,126.203 C 359.775,126.203 359.222,127.001 359.222,127.918 C 359.222,128.885 359.831,129.645 360.956,129.645 C 362.048,129.645 362.588,128.81 362.588,127.938"
                 style="fill:#444041;fill-opacity:1;fill-rule:nonzero;stroke:none"
                 id="path2502" />
              <path
                 d="M 362.944,129.551 L 363.848,129.551 L 363.848,129.181 C 363.93,129.294 364.212,129.626 364.74,129.626 C 365.286,129.626 365.777,129.306 365.845,128.615 C 365.858,128.514 365.858,128.49 365.858,128.062 L 365.858,126.298 L 364.916,126.298 L 364.916,128 C 364.916,128.25 364.916,128.333 364.904,128.414 C 364.834,128.829 364.476,128.835 364.426,128.835 C 364.162,128.835 363.987,128.653 363.923,128.471 C 363.874,128.339 363.874,128.182 363.874,127.874 L 363.874,126.298 L 362.944,126.298 L 362.944,129.551"
                 style="fill:#444041;fill-opacity:1;fill-rule:nonzero;stroke:none"
                 id="path2504" />
              <path
                 d="M 366.357,129.551 L 367.27393,129.551 L 367.27393,126.298 L 366.357,126.298 L 366.357,129.551 z M 366.357,130.732 L 367.27393,130.732 L 367.27393,129.89622 L 366.357,129.89622 L 366.357,130.732 z"
                 style="fill:#444041;fill-opacity:1;fill-rule:nonzero;stroke:none"
                 id="path2506" />
              <path
                 d="M 370.772,127.503 C 370.728,127.202 370.634,126.963 370.446,126.731 C 370.044,126.235 369.509,126.203 369.234,126.203 C 368.027,126.203 367.626,127.108 367.626,127.912 C 367.626,128.942 368.247,129.645 369.29,129.645 C 369.579,129.645 370.056,129.595 370.427,129.161 C 370.697,128.848 370.728,128.546 370.741,128.42 L 369.849,128.383 C 369.817,128.514 369.73,128.885 369.271,128.885 C 368.587,128.885 368.587,128.094 368.587,127.938 C 368.587,127.724 368.606,127.503 368.706,127.321 C 368.838,127.077 369.057,126.988 369.265,126.988 C 369.466,126.988 369.805,127.089 369.868,127.541 L 370.772,127.503"
                 style="fill:#444041;fill-opacity:1;fill-rule:nonzero;stroke:none"
                 id="path2508" />
              <path
                 d="M 371.937,127.435 C 371.975,127.202 372.025,126.895 372.635,126.895 C 372.76,126.895 373.093,126.913 373.093,127.195 C 373.093,127.39 372.93,127.447 372.729,127.497 C 372.641,127.522 372.214,127.622 372.12,127.648 C 371.749,127.742 371.159,127.887 371.159,128.615 C 371.159,128.798 371.19,129.13 371.548,129.388 C 371.78,129.551 372.114,129.645 372.528,129.645 C 372.848,129.645 373.194,129.589 373.47,129.401 C 373.778,129.2 373.917,128.917 373.941,128.54 L 373.074,128.497 C 373.056,128.603 373.043,128.691 372.993,128.766 C 372.98,128.785 372.855,128.967 372.497,128.967 C 372.182,128.967 372.051,128.873 372.051,128.703 C 372.051,128.571 372.138,128.503 372.396,128.44 C 372.472,128.42 372.842,128.333 372.93,128.314 C 373.35,128.213 374.035,128.05 374.035,127.296 C 374.035,126.518 373.37,126.203 372.609,126.203 C 372.352,126.203 372.145,126.235 371.988,126.279 C 371.775,126.329 371.416,126.461 371.203,126.832 C 371.064,127.064 371.058,127.265 371.058,127.41 L 371.937,127.435"
                 style="fill:#444041;fill-opacity:1;fill-rule:nonzero;stroke:none"
                 id="path2510" />
              <path
                 d="M 380.331,128.816 C 379.973,128.635 379.947,128.182 379.947,127.899 C 379.947,127.685 379.973,127.472 380.067,127.309 C 380.192,127.064 380.405,126.988 380.607,126.988 C 381.078,126.988 381.266,127.46 381.266,127.987 C 381.266,128.352 381.146,128.878 380.625,128.878 C 380.519,128.878 380.419,128.86 380.331,128.816 z M 379.935,129.558 L 379.935,129.168 C 380.161,129.488 380.456,129.639 380.858,129.639 C 381.662,129.639 382.202,128.973 382.202,127.931 C 382.202,126.938 381.649,126.216 380.814,126.216 C 380.312,126.216 380.104,126.43 379.96,126.58 L 379.96,125.28 L 379.037,125.28 L 379.037,129.558 L 379.935,129.558"
                 style="fill:#444041;fill-opacity:1;fill-rule:nonzero;stroke:none"
                 id="path2512" />
              <path
                 d="M 384.68,128.358 C 384.668,128.452 384.649,128.558 384.561,128.684 C 384.385,128.923 384.128,128.923 384.052,128.923 C 383.531,128.923 383.424,128.521 383.38,128.358 L 384.68,128.358 z M 383.373,127.66 C 383.392,127.535 383.411,127.39 383.524,127.234 C 383.681,127.008 383.883,126.957 384.078,126.957 C 384.492,126.957 384.624,127.202 384.68,127.309 L 385.616,127.24 C 385.572,127.113 385.528,126.963 385.333,126.737 C 385.22,126.611 384.856,126.21 384.052,126.21 C 382.909,126.21 382.4,127.051 382.4,127.924 C 382.4,128.878 383.015,129.645 384.064,129.645 C 384.963,129.645 385.403,129.068 385.566,128.471 C 385.654,128.157 385.654,127.861 385.654,127.66 L 383.373,127.66"
                 style="fill:#444041;fill-opacity:1;fill-rule:nonzero;stroke:none"
                 id="path2514" />
              <path
                 d="M 388.969,127.503 C 388.925,127.202 388.831,126.963 388.642,126.731 C 388.241,126.235 387.707,126.203 387.431,126.203 C 386.225,126.203 385.823,127.108 385.823,127.912 C 385.823,128.942 386.444,129.645 387.487,129.645 C 387.775,129.645 388.253,129.595 388.623,129.161 C 388.894,128.848 388.925,128.546 388.938,128.42 L 388.046,128.383 C 388.015,128.514 387.927,128.885 387.468,128.885 C 386.784,128.885 386.784,128.094 386.784,127.938 C 386.784,127.724 386.803,127.503 386.903,127.321 C 387.035,127.077 387.254,126.988 387.462,126.988 C 387.662,126.988 388.002,127.089 388.065,127.541 L 388.969,127.503"
                 style="fill:#444041;fill-opacity:1;fill-rule:nonzero;stroke:none"
                 id="path2516" />
              <path
                 d="M 389.295,129.551 L 390.21187,129.551 L 390.21187,126.298 L 389.295,126.298 L 389.295,129.551 z M 389.295,130.732 L 390.21187,130.732 L 390.21187,129.89622 L 389.295,129.89622 L 389.295,130.732 z"
                 style="fill:#444041;fill-opacity:1;fill-rule:nonzero;stroke:none"
                 id="path2518" />
              <path
                 d="M 392.521,128.722 C 392.426,128.823 392.289,128.885 392.15,128.885 C 391.98,128.885 391.804,128.791 391.691,128.647 C 391.534,128.44 391.496,128.182 391.496,127.931 C 391.496,127.729 391.522,127.535 391.597,127.372 C 391.722,127.089 391.93,126.988 392.112,126.988 C 392.168,126.988 392.351,127.001 392.514,127.171 C 392.708,127.384 392.752,127.667 392.752,127.962 C 392.752,128.383 392.639,128.603 392.521,128.722 z M 392.759,126.656 C 392.646,126.505 392.433,126.228 391.905,126.228 C 391.132,126.228 390.555,126.857 390.555,127.874 C 390.555,129.156 391.359,129.633 391.974,129.633 C 392.333,129.633 392.615,129.45 392.778,129.137 L 392.778,129.558 L 393.663,129.558 L 393.663,126.298 L 392.759,126.298 L 392.759,126.656"
                 style="fill:#444041;fill-opacity:1;fill-rule:nonzero;stroke:none"
                 id="path2520" />
              <path
                 d="M 394.169,130.738 L 395.105,130.738 L 395.068,127.309 C 395.068,127.026 395.156,127.001 395.482,127.001 L 395.482,126.272 C 395.331,126.26 395.193,126.254 395.042,126.254 C 394.878,126.254 394.566,126.26 394.357,126.448 C 394.156,126.63 394.137,126.875 394.137,127.113 L 394.169,130.738"
                 style="fill:#444041;fill-opacity:1;fill-rule:nonzero;stroke:none"
                 id="path2522" />
              <path
                 d="M 395.712,129.551 L 396.62927,129.551 L 396.62927,126.298 L 395.712,126.298 L 395.712,129.551 z M 395.712,130.732 L 396.62927,130.732 L 396.62927,129.89622 L 395.712,129.89622 L 395.712,130.732 z"
                 style="fill:#444041;fill-opacity:1;fill-rule:nonzero;stroke:none"
                 id="path2524" />
              <path
                 d="M 397.848,127.435 C 397.886,127.202 397.936,126.895 398.546,126.895 C 398.67,126.895 399.004,126.913 399.004,127.195 C 399.004,127.39 398.839,127.447 398.639,127.497 C 398.551,127.522 398.124,127.622 398.03,127.648 C 397.659,127.742 397.068,127.887 397.068,128.615 C 397.068,128.798 397.101,129.13 397.458,129.388 C 397.691,129.551 398.024,129.645 398.438,129.645 C 398.758,129.645 399.104,129.589 399.379,129.401 C 399.687,129.2 399.826,128.917 399.852,128.54 L 398.985,128.497 C 398.965,128.603 398.952,128.691 398.902,128.766 C 398.89,128.785 398.765,128.967 398.407,128.967 C 398.092,128.967 397.96,128.873 397.96,128.703 C 397.96,128.571 398.048,128.503 398.306,128.44 C 398.381,128.42 398.752,128.333 398.839,128.314 C 399.261,128.213 399.945,128.05 399.945,127.296 C 399.945,126.518 399.279,126.203 398.519,126.203 C 398.263,126.203 398.054,126.235 397.897,126.279 C 397.684,126.329 397.327,126.461 397.113,126.832 C 396.975,127.064 396.969,127.265 396.969,127.41 L 397.848,127.435"
                 style="fill:#444041;fill-opacity:1;fill-rule:nonzero;stroke:none"
                 id="path2526" />
              <path
                 d="M 401.974,128.848 L 401.402,128.848 L 401.402,127.654 C 401.402,127.327 401.402,127.29 401.409,127.234 C 401.44,127.07 401.515,127.008 401.754,127.008 C 401.793,127.008 401.969,127.014 402.006,127.014 L 402.006,126.304 C 401.793,126.279 401.642,126.26 401.371,126.26 C 400.466,126.26 400.48,126.806 400.48,127.441 L 400.48,128.848 L 400.015,128.848 L 400.015,129.551 L 400.48,129.551 L 400.48,130.512 L 401.402,130.512 L 401.402,129.551 L 401.974,129.551 L 401.974,128.848"
                 style="fill:#444041;fill-opacity:1;fill-rule:nonzero;stroke:none"
                 id="path2528" />
              <path
                 d="M 376.709,127.435 C 376.748,127.202 376.798,126.895 377.407,126.895 C 377.533,126.895 377.865,126.913 377.865,127.195 C 377.865,127.39 377.702,127.447 377.501,127.497 C 377.413,127.522 376.986,127.622 376.892,127.648 C 376.521,127.742 375.93,127.887 375.93,128.615 C 375.93,128.798 375.962,129.13 376.319,129.388 C 376.553,129.551 376.886,129.645 377.301,129.645 C 377.62,129.645 377.966,129.589 378.242,129.401 C 378.549,129.2 378.689,128.917 378.713,128.54 L 377.847,128.497 C 377.827,128.603 377.815,128.691 377.764,128.766 C 377.752,128.785 377.627,128.967 377.269,128.967 C 376.954,128.967 376.822,128.873 376.822,128.703 C 376.822,128.571 376.91,128.503 377.169,128.44 C 377.243,128.42 377.614,128.333 377.702,128.314 C 378.122,128.213 378.807,128.05 378.807,127.296 C 378.807,126.518 378.141,126.203 377.382,126.203 C 377.125,126.203 376.917,126.235 376.76,126.279 C 376.546,126.329 376.188,126.461 375.975,126.832 C 375.837,127.064 375.83,127.265 375.83,127.41 L 376.709,127.435"
                 style="fill:#444041;fill-opacity:1;fill-rule:nonzero;stroke:none"
                 id="path2530" />
              <path
                 d="M 414.125,125.658 L 419.9637,125.658 L 419.9637,130.978 L 414.125,130.978 L 414.125,125.658 z"
                 style="fill:#444041;fill-opacity:1;fill-rule:nonzero;stroke:none"
                 id="path2532" />
              <path
                 d="M 404.478,130.975 L 410.408,130.975 L 410.425,109.39 C 410.425,107.59 410.985,107.43 413.064,107.43 L 413.064,102.791 C 411.618,102.761 411.224,102.789 410.265,102.789 C 409.226,102.789 407.226,102.828 405.906,104.029 C 404.626,105.189 404.478,106.748 404.478,108.268 L 404.478,130.975"
                 style="fill:#40c1e7;fill-opacity:1;fill-rule:nonzero;stroke:none"
                 id="path2534" />
            </g>
          </g>
        </g>
      </g>
    </g>
  </g>
</svg>
