<?xml version="1.0" encoding="UTF-8"?>
<!-- Generator: Adobe Illustrator 13.0.0, SVG Export Plug-In . SVG Version: 6.00 Build 14948)  -->
<!DOCTYPE svg PUBLIC "-//W3C//DTD SVG 1.1//EN" "http://www.w3.org/Graphics/SVG/1.1/DTD/svg11.dtd">
<svg version="1.1" id="Layer_1" xmlns="http://www.w3.org/2000/svg" xmlns:xlink="http://www.w3.org/1999/xlink" x="0px" y="0px" width="175.748px" height="46.25px" viewBox="0 0 175.748 46.25" enable-background="new 0 0 175.748 46.25" xml:space="preserve">
<g>
	<polygon fill-rule="evenodd" clip-rule="evenodd" fill="#004FA3" points="79.17,6.688 79.17,4.127 67.643,4.127 67.643,6.688 71.959,6.688 71.959,18.974 74.853,18.974 74.853,6.688 79.17,6.688"/>
	<path fill-rule="evenodd" clip-rule="evenodd" fill="#004FA3" d="M86.333,10.341V8.064c-0.427-0.095-0.569-0.142-0.901-0.142   c-1.186,0-2.087,0.474-2.798,1.471V8.207h-2.419v10.768h2.562V11.29c0.949-0.759,1.755-1.043,2.751-1.043   C85.811,10.246,86.048,10.246,86.333,10.341L86.333,10.341L86.333,10.341z"/>
	<path fill-rule="evenodd" clip-rule="evenodd" fill="#004FA3" d="M96.437,18.974v-6.925c0-1.471-0.285-2.324-0.949-2.989   c-0.759-0.759-1.897-1.138-3.32-1.138c-1.186,0-2.229,0.189-3.463,0.664l-0.569,2.562c1.091-0.664,2.277-1.043,3.511-1.043   c1.47,0,2.135,0.474,2.229,1.66c-4.032,0.237-6.499,1.803-6.499,4.269c0,1.897,1.376,3.178,3.415,3.178   c1.233,0,2.277-0.427,3.226-1.139v0.901H96.437L96.437,18.974z M93.875,16.271c-1.091,0.569-1.66,0.806-2.372,0.806   c-0.948,0-1.471-0.521-1.471-1.328c0-1.138,1.233-1.85,3.843-2.182V16.271L93.875,16.271z"/>
	<path fill-rule="evenodd" clip-rule="evenodd" fill="#004FA3" d="M109.102,18.974v-6.593c0-2.704-1.423-4.459-4.411-4.459   c-0.949,0-2.135,0.379-2.894,1.186V8.207h-2.42v10.768h2.562v-7.732c0.759-0.616,1.471-0.949,2.372-0.949   c1.518,0,2.229,0.901,2.229,2.609v6.072H109.102L109.102,18.974z"/>
	<path fill-rule="evenodd" clip-rule="evenodd" fill="#004FA3" d="M119.917,15.986c0-2.372-1.756-3.036-3.985-3.652   c-1.612-0.427-1.992-0.664-1.992-1.281c0-0.427,0.38-0.949,1.613-0.949c0.901,0,2.229,0.474,3.368,1.186V8.918   c-1.233-0.664-2.372-0.996-3.652-0.996c-2.372,0-4.127,1.281-4.127,3.226c0,2.182,1.755,2.798,4.127,3.51   c1.186,0.379,1.992,0.664,1.992,1.423c0,0.665-0.569,0.949-1.519,0.949c-1.518,0-3.178-0.712-4.364-1.613v2.514   c1.187,0.759,2.657,1.281,4.364,1.281C118.209,19.211,119.917,18.026,119.917,15.986L119.917,15.986L119.917,15.986z"/>
	<path fill-rule="evenodd" clip-rule="evenodd" fill="#004FA3" d="M132.345,13.614c0-3.273-2.087-5.692-5.171-5.692   c-1.138,0-2.087,0.474-2.751,1.138V8.207h-2.419v14.942h2.562v-4.696c0.712,0.521,1.518,0.759,2.514,0.759   C130.4,19.211,132.345,16.792,132.345,13.614L132.345,13.614L132.345,13.614z M129.688,13.756c0,2.04-1.139,3.226-2.988,3.226   c-0.996,0-1.613-0.237-2.135-0.617v-5.408c0.569-0.379,1.281-0.617,2.04-0.617C128.55,10.341,129.688,11.574,129.688,13.756   L129.688,13.756L129.688,13.756z"/>
	<path fill-rule="evenodd" clip-rule="evenodd" fill="#004FA3" d="M145.2,13.567c0-3.083-2.515-5.645-5.646-5.645   c-3.083,0-5.645,2.562-5.645,5.645c0,3.13,2.562,5.645,5.645,5.645C142.686,19.211,145.2,16.697,145.2,13.567L145.2,13.567   L145.2,13.567z M142.591,13.567c0,1.755-1.281,3.13-3.036,3.13c-1.707,0-2.988-1.375-2.988-3.13c0-1.755,1.328-3.083,2.988-3.083   C141.31,10.483,142.591,11.859,142.591,13.567L142.591,13.567L142.591,13.567z"/>
	<path fill-rule="evenodd" clip-rule="evenodd" fill="#004FA3" d="M153.69,10.341V8.064c-0.427-0.095-0.616-0.142-0.948-0.142   c-1.187,0-2.04,0.474-2.751,1.471V8.207h-2.42v10.768h2.562V11.29c0.949-0.759,1.755-1.043,2.751-1.043   C153.121,10.246,153.406,10.246,153.69,10.341L153.69,10.341L153.69,10.341z"/>
	<path fill-rule="evenodd" clip-rule="evenodd" fill="#004FA3" d="M162.514,18.785v-2.372c-0.854,0.38-1.613,0.617-2.135,0.617   c-1.85,0-1.85-1.091-1.85-1.661v-5.076h3.89V8.207h-3.89V5.55h-2.562v2.656h-1.803v2.087h1.803v5.17   c0,2.562,1.565,3.748,3.89,3.748C160.854,19.211,161.755,19.069,162.514,18.785L162.514,18.785L162.514,18.785z"/>
	<path fill-rule="evenodd" clip-rule="evenodd" fill="#004FA3" d="M75.66,29.6v-2.182c-0.759-0.236-1.708-0.379-2.609-0.379   c-2.656,0-3.843,1.518-3.843,4.553h-1.66v2.039h1.66v8.777h2.562v-8.777h3.605v-2.039H71.77c0-1.422,0.379-2.467,1.897-2.467   C74.568,29.125,75.138,29.363,75.66,29.6L75.66,29.6L75.66,29.6z"/>
	<path fill-rule="evenodd" clip-rule="evenodd" fill="#004FA3" d="M87.471,37c0-3.131-2.515-5.645-5.645-5.645   c-3.131,0-5.645,2.514-5.645,5.645s2.514,5.645,5.645,5.645C84.957,42.645,87.471,40.131,87.471,37L87.471,37L87.471,37z    M84.814,37c0,1.754-1.281,3.131-2.988,3.131S78.79,38.754,78.79,37c0-1.756,1.329-3.131,3.036-3.131S84.814,35.293,84.814,37   L84.814,37L84.814,37z"/>
	<path fill-rule="evenodd" clip-rule="evenodd" fill="#004FA3" d="M95.962,33.773v-2.275c-0.427-0.096-0.617-0.143-0.949-0.143   c-1.186,0-2.039,0.475-2.798,1.422v-1.186h-2.42v10.816h2.562v-7.686c0.996-0.758,1.755-1.043,2.799-1.043   C95.393,33.68,95.63,33.68,95.962,33.773L95.962,33.773L95.962,33.773z"/>
	<polygon fill-rule="evenodd" clip-rule="evenodd" fill="#004FA3" points="112.991,42.408 112.991,39.703 106.777,39.703 106.777,27.512 103.884,27.512 103.884,42.408 112.991,42.408"/>
	<path fill-rule="evenodd" clip-rule="evenodd" fill="#004FA3" d="M125.514,37c0-3.131-2.514-5.645-5.645-5.645   s-5.645,2.514-5.645,5.645s2.514,5.645,5.645,5.645S125.514,40.131,125.514,37L125.514,37L125.514,37z M122.905,37   c0,1.754-1.328,3.131-3.036,3.131s-2.988-1.377-2.988-3.131c0-1.756,1.28-3.131,2.988-3.131S122.905,35.293,122.905,37L122.905,37   L122.905,37z"/>
	<path fill-rule="evenodd" clip-rule="evenodd" fill="#004FA3" d="M137.563,42.408v-6.643c0-2.703-1.423-4.41-4.364-4.41   c-0.948,0-2.135,0.379-2.94,1.186v-0.949h-2.372v10.816h2.562v-7.781c0.759-0.568,1.471-0.9,2.324-0.9   c1.519,0,2.229,0.9,2.229,2.609v6.072H137.563L137.563,42.408z"/>
	<path fill-rule="evenodd" clip-rule="evenodd" fill="#004FA3" d="M150.086,42.408V27.512h-2.562v4.744   c-0.617-0.521-1.565-0.9-2.467-0.9c-3.368,0-5.266,2.467-5.266,5.645c0,3.273,2.087,5.645,5.266,5.645   c1.091,0,2.04-0.475,2.608-1.092v0.855H150.086L150.086,42.408z M147.524,39.703c-0.522,0.332-1.187,0.57-1.993,0.57   c-1.992,0-3.13-1.328-3.13-3.416c0-1.945,1.138-3.131,2.988-3.131c0.996,0,1.612,0.238,2.135,0.617V39.703L147.524,39.703z"/>
	<path fill-rule="evenodd" clip-rule="evenodd" fill="#004FA3" d="M163.699,37c0-3.131-2.514-5.645-5.645-5.645   S152.41,33.869,152.41,37s2.514,5.645,5.645,5.645S163.699,40.131,163.699,37L163.699,37L163.699,37z M161.091,37   c0,1.754-1.328,3.131-3.036,3.131s-2.988-1.377-2.988-3.131c0-1.756,1.328-3.131,2.988-3.131   C159.763,33.869,161.091,35.293,161.091,37L161.091,37L161.091,37z"/>
	<path fill-rule="evenodd" clip-rule="evenodd" fill="#004FA3" d="M175.748,42.408v-6.643c0-2.703-1.423-4.41-4.364-4.41   c-0.948,0-2.135,0.379-2.94,1.186v-0.949h-2.372v10.816h2.562v-7.781c0.759-0.568,1.471-0.9,2.372-0.9   c1.518,0,2.182,0.9,2.182,2.609v6.072H175.748L175.748,42.408z"/>
	<path fill-rule="evenodd" clip-rule="evenodd" fill="#004FA3" d="M43.356,23.101c0,8.254-6.641,14.942-14.895,14.942   c-8.254,0-14.895-6.688-14.895-14.942c0-8.207,6.641-14.895,14.895-14.895C36.715,8.207,43.356,14.895,43.356,23.101L43.356,23.101   z M28.461,0C15.701,0,5.36,10.341,5.36,23.101c0,12.807,10.341,23.149,23.101,23.149s23.101-10.342,23.101-23.149   C51.563,10.341,41.222,0,28.461,0L28.461,0z"/>
	<polygon fill-rule="evenodd" clip-rule="evenodd" fill="#004FA3" points="0,18.453 56.875,18.453 56.875,27.797 0,27.797 0,18.453"/>
</g>
</svg>